<svg width="255" height="255" viewBox="0 0 255 255" fill="none" xmlns="http://www.w3.org/2000/svg">
<g clip-path="url(#clip0_2083_2)">
<path d="M127.5 255C197.913 255 255 197.913 255 127.5C255 57.0872 197.913 0 127.5 0C57.0872 0 0 57.0872 0 127.5C0 197.913 57.0872 255 127.5 255Z" fill="#F8F8F8"/>
<path d="M127.5 244.201C191.68 244.201 244.201 191.68 244.201 127.5C244.201 63.3201 191.68 10.7988 127.5 10.7988C63.3201 10.7988 10.7988 63.3201 10.7988 127.5C10.7988 191.68 63.3201 244.201 127.5 244.201Z" stroke="black" stroke-width="3"/>
<path d="M127.499 221.723C179.919 221.723 222.844 179.865 222.844 128.61C222.844 77.3547 179.919 35.4971 127.499 35.4971C75.0792 35.4971 32.1543 77.3547 32.1543 128.61C32.1543 179.865 75.0792 221.723 127.499 221.723Z" fill="#141414"/>
<path d="M106.636 102.34H88.5997V155.074H106.636V102.34Z" fill="white"/>
<path d="M141.011 102.34H110.154V120.93H137.986V136.521H110.154V155.074H141.011C159.95 155.074 175.423 140.923 175.423 122.996C175.423 105.068 159.95 102.34 141.011 102.34Z" fill="white"/>
</g>
<defs>
<clipPath id="clip0_2083_2">
<rect width="255" height="255" fill="white"/>
</clipPath>
</defs>
</svg>
